<?xml version="1.0" encoding="utf-8"?>
<!-- Generator: Adobe Illustrator 26.3.1, SVG Export Plug-In . SVG Version: 6.00 Build 0)  -->
<svg version="1.1" id="Capa_1" xmlns="http://www.w3.org/2000/svg" xmlns:xlink="http://www.w3.org/1999/xlink" x="0px" y="0px"
	 viewBox="0 0 143.1 106.2" style="enable-background:new 0 0 143.1 106.2;" xml:space="preserve">
<style type="text/css">
	.st0{fill:#FFFFFF;}
</style>
<g>
	<g>
		<path class="st0" d="M2.7,104.4c-0.1-0.1-0.1-0.2,0-0.3l1.5-1.7c0.1-0.1,0.2-0.1,0.3,0c0.9,0.7,2,1.3,3.4,1.3
			c1.4,0,2.1-0.6,2.1-1.6c0-0.8-0.5-1.3-2-1.5l-0.7-0.1c-2.7-0.4-4.1-1.6-4.1-3.9c0-2.4,1.8-4,4.6-4c1.7,0,3.4,0.5,4.5,1.4
			c0.1,0.1,0.1,0.2,0,0.3l-1.2,1.8c-0.1,0.1-0.2,0.1-0.3,0.1c-1-0.7-2-1-3-1c-1.2,0-1.8,0.6-1.8,1.4c0,0.8,0.5,1.2,2,1.4l0.7,0.1
			c2.7,0.4,4.1,1.6,4.1,4c0,2.4-1.8,4.1-5.1,4.1C5.7,106.2,3.7,105.4,2.7,104.4z"/>
		<path class="st0" d="M17.8,93.1c0-0.1,0.1-0.2,0.3-0.2h2.4c0.1,0,0.2,0.1,0.3,0.2l4.4,12.7c0,0.1,0,0.2-0.1,0.2h-2.5
			c-0.1,0-0.2-0.1-0.3-0.2l-0.8-2.3h-4.6l-0.7,2.3c0,0.1-0.1,0.2-0.3,0.2h-2.5c-0.1,0-0.2-0.1-0.1-0.2L17.8,93.1z M20.7,101.1
			l-1.5-4.6h-0.1l-1.5,4.6H20.7z"/>
		<path class="st0" d="M26.2,93.1c0-0.1,0.1-0.2,0.2-0.2h2.3c0.1,0,0.3,0.1,0.3,0.2l4.6,8.3h0.1v-8.3c0-0.1,0.1-0.2,0.2-0.2h2.2
			c0.1,0,0.2,0.1,0.2,0.2v12.7c0,0.1-0.1,0.2-0.2,0.2h-2.3c-0.2,0-0.3-0.1-0.3-0.2l-4.6-8.2h-0.1v8.2c0,0.1-0.1,0.2-0.2,0.2h-2.2
			c-0.1,0-0.2-0.1-0.2-0.2V93.1z"/>
		<path class="st0" d="M41.2,106c-0.1,0-0.2-0.1-0.2-0.2V95.5c0-0.1,0-0.1-0.1-0.1h-3.3c-0.1,0-0.2-0.1-0.2-0.2v-2.1
			c0-0.1,0.1-0.2,0.2-0.2h9.7c0.1,0,0.2,0.1,0.2,0.2v2.1c0,0.1-0.1,0.2-0.2,0.2H44c-0.1,0-0.1,0-0.1,0.1v10.3c0,0.1-0.1,0.2-0.2,0.2
			H41.2z"/>
		<path class="st0" d="M48.2,103c-0.3-0.9-0.4-1.6-0.4-3.6c0-1.9,0.1-2.7,0.4-3.6c0.7-2.1,2.5-3.2,4.8-3.2c2.3,0,4.1,1.1,4.8,3.2
			c0.3,0.9,0.4,1.6,0.4,3.6c0,1.9-0.1,2.7-0.4,3.6c-0.7,2.1-2.5,3.2-4.8,3.2C50.7,106.2,48.9,105.1,48.2,103z M55.1,102.2
			c0.2-0.5,0.2-1.1,0.2-2.8c0-1.7-0.1-2.4-0.2-2.8c-0.3-0.9-1-1.4-2.1-1.4c-1.1,0-1.8,0.5-2.1,1.4c-0.2,0.5-0.2,1.1-0.2,2.8
			c0,1.7,0.1,2.4,0.2,2.8c0.3,0.9,1,1.4,2.1,1.4C54.1,103.7,54.8,103.1,55.1,102.2z"/>
		<path class="st0" d="M64,93.1c0-0.1,0.1-0.2,0.2-0.2H69c2.3,0,3.9,1,4.5,3c0.2,0.7,0.3,1.5,0.3,3.6c0,2.1-0.1,2.9-0.3,3.6
			c-0.6,2-2.2,3-4.5,3h-4.9c-0.1,0-0.2-0.1-0.2-0.2V93.1z M66.9,103.5h1.5c1.3,0,2.1-0.4,2.4-1.4c0.1-0.4,0.2-0.9,0.2-2.6
			c0-1.7-0.1-2.2-0.2-2.6c-0.3-1.1-1.1-1.4-2.4-1.4h-1.5c-0.1,0-0.1,0-0.1,0.1v7.8C66.8,103.4,66.8,103.5,66.9,103.5z"/>
		<path class="st0" d="M75.7,103c-0.3-0.9-0.4-1.6-0.4-3.6c0-1.9,0.1-2.7,0.4-3.6c0.7-2.1,2.5-3.2,4.8-3.2c2.3,0,4.1,1.1,4.8,3.2
			c0.3,0.9,0.4,1.6,0.4,3.6c0,1.9-0.1,2.7-0.4,3.6c-0.7,2.1-2.5,3.2-4.8,3.2C78.2,106.2,76.3,105.1,75.7,103z M82.5,102.2
			c0.2-0.5,0.2-1.1,0.2-2.8c0-1.7-0.1-2.4-0.2-2.8c-0.3-0.9-1-1.4-2.1-1.4c-1.1,0-1.8,0.5-2.1,1.4c-0.2,0.5-0.2,1.1-0.2,2.8
			c0,1.7,0.1,2.4,0.2,2.8c0.3,0.9,1,1.4,2.1,1.4C81.5,103.7,82.2,103.1,82.5,102.2z"/>
		<path class="st0" d="M87.3,93.1c0-0.1,0.1-0.2,0.2-0.2h2.3c0.2,0,0.3,0.1,0.3,0.2l3.3,7.5h0.1l3.3-7.5c0.1-0.1,0.2-0.2,0.3-0.2
			h2.3c0.1,0,0.2,0.1,0.2,0.2v12.7c0,0.1-0.1,0.2-0.2,0.2h-2.2c-0.1,0-0.2-0.1-0.2-0.2v-7.4h-0.1l-2.4,5.5c-0.1,0.2-0.2,0.3-0.4,0.3
			h-1.3c-0.2,0-0.3-0.1-0.4-0.3l-2.4-5.5h-0.1v7.4c0,0.1-0.1,0.2-0.2,0.2h-2.2c-0.1,0-0.2-0.1-0.2-0.2V93.1z"/>
		<path class="st0" d="M101.5,93.1c0-0.1,0.1-0.2,0.2-0.2h2.4c0.1,0,0.2,0.1,0.2,0.2v12.7c0,0.1-0.1,0.2-0.2,0.2h-2.4
			c-0.1,0-0.2-0.1-0.2-0.2V93.1z"/>
		<path class="st0" d="M106.4,93.1c0-0.1,0.1-0.2,0.2-0.2h2.3c0.1,0,0.3,0.1,0.3,0.2l4.6,8.3h0.1v-8.3c0-0.1,0.1-0.2,0.2-0.2h2.2
			c0.1,0,0.2,0.1,0.2,0.2v12.7c0,0.1-0.1,0.2-0.2,0.2H114c-0.2,0-0.3-0.1-0.3-0.2l-4.6-8.2H109v8.2c0,0.1-0.1,0.2-0.2,0.2h-2.2
			c-0.1,0-0.2-0.1-0.2-0.2V93.1z"/>
		<path class="st0" d="M118.2,99.4c0-1.9,0.1-2.7,0.4-3.6c0.7-2.1,2.5-3.2,4.8-3.2c2.4,0,4,1.2,4.7,2.8c0.1,0.1,0,0.2-0.1,0.3
			l-2.1,0.9c-0.1,0-0.2,0-0.3-0.1c-0.5-0.9-1.2-1.3-2.3-1.3c-1.1,0-1.8,0.6-2.1,1.5c-0.2,0.5-0.2,1.1-0.2,2.8c0,1.7,0.1,2.4,0.2,2.8
			c0.3,0.9,1,1.4,2.1,1.4c1,0,1.8-0.5,2.1-1.3c0.1-0.3,0.2-0.7,0.2-1.3c0-0.1,0-0.1-0.1-0.1h-1.8c-0.1,0-0.2-0.1-0.2-0.2v-1.9
			c0-0.1,0.1-0.2,0.2-0.2h4.5c0.1,0,0.2,0.1,0.2,0.2v1.1c0,1.2-0.1,2.2-0.3,3c-0.7,2.1-2.5,3.3-4.8,3.3c-2.3,0-4.1-1.1-4.8-3.2
			C118.3,102.1,118.2,101.4,118.2,99.4z"/>
		<path class="st0" d="M130.2,103c-0.3-0.9-0.4-1.6-0.4-3.6c0-1.9,0.1-2.7,0.4-3.6c0.7-2.1,2.5-3.2,4.8-3.2c2.3,0,4.1,1.1,4.8,3.2
			c0.3,0.9,0.4,1.6,0.4,3.6c0,1.9-0.1,2.7-0.4,3.6c-0.7,2.1-2.5,3.2-4.8,3.2C132.7,106.2,130.9,105.1,130.2,103z M137.1,102.2
			c0.2-0.5,0.2-1.1,0.2-2.8c0-1.7-0.1-2.4-0.2-2.8c-0.3-0.9-1-1.4-2.1-1.4c-1.1,0-1.8,0.5-2.1,1.4c-0.2,0.5-0.2,1.1-0.2,2.8
			c0,1.7,0.1,2.4,0.2,2.8c0.3,0.9,1,1.4,2.1,1.4C136.1,103.7,136.8,103.1,137.1,102.2z"/>
	</g>
	<g>
		<path class="st0" d="M10.2,73.4L7.6,85.3h1.8l-0.1,0.5H3.4l0.1-0.5h1.8l2.6-11.9H6.1l0.1-0.5h5.8L12,73.4H10.2z"/>
		<path class="st0" d="M15.5,78.1L15,80.2l0,0c1.1-1.5,2.2-2.2,3.3-2.2c0.4,0,0.8,0.1,1,0.4c0.3,0.3,0.4,0.6,0.4,1
			c0,0.2-0.1,0.5-0.2,0.9l-0.9,3.6c-0.1,0.4-0.1,0.6-0.1,0.8c0,0.3,0.1,0.5,0.3,0.5c0.6,0,1.1-0.7,1.7-2.1h0.5
			c-0.4,1-0.8,1.7-1.4,2.2c-0.5,0.5-1.1,0.7-1.6,0.7c-0.9,0-1.3-0.4-1.3-1.2c0-0.3,0.1-0.7,0.2-1.3l0.8-3.2c0,0,0-0.1,0.1-0.3
			c0-0.2,0.1-0.3,0.1-0.5c0-0.4-0.2-0.6-0.5-0.6c-0.4,0-0.9,0.3-1.6,1c-0.7,0.6-1.3,1.9-1.7,3.7l-0.6,2.4h-1.8l1.7-7.1h-1.7l0.1-0.5
			h1.3C14.1,78.2,14.9,78.2,15.5,78.1z"/>
		<path class="st0" d="M24.3,79.5c0,0.2,0.1,0.4,0.2,0.6c0.2,0.2,0.6,0.5,1.3,0.8c0.7,0.4,1.2,0.7,1.5,1.1c0.3,0.4,0.5,0.8,0.5,1.3
			c0,0.8-0.3,1.4-1,1.9c-0.7,0.5-1.4,0.7-2.3,0.7c-0.7,0-1.3-0.2-1.8-0.5c-0.5-0.3-0.7-0.7-0.7-1.1c0-0.3,0.1-0.5,0.2-0.6
			c0.2-0.2,0.4-0.3,0.6-0.3c0.2,0,0.4,0.1,0.5,0.2c0.1,0.2,0.2,0.3,0.2,0.5c0,0.1,0,0.3-0.1,0.5c-0.1,0.2-0.1,0.3-0.1,0.3
			c0,0.4,0.4,0.5,1.2,0.5c0.6,0,1.1-0.1,1.4-0.4c0.4-0.3,0.5-0.6,0.5-0.9c0-0.5-0.5-1.1-1.5-1.5c-1.3-0.6-1.9-1.4-1.9-2.4
			c0-0.6,0.3-1.1,0.8-1.6c0.5-0.5,1.2-0.8,2.1-0.8c0.7,0,1.2,0.1,1.6,0.4c0.4,0.2,0.6,0.6,0.6,1c0,0.2-0.1,0.4-0.2,0.6
			c-0.2,0.2-0.4,0.2-0.6,0.2c-0.2,0-0.4-0.1-0.5-0.2c-0.1-0.1-0.2-0.3-0.2-0.5c0-0.1,0-0.2,0.1-0.4c0-0.1,0.1-0.3,0.1-0.4
			c0-0.2-0.3-0.3-0.8-0.3c-0.5,0-0.9,0.1-1.2,0.3C24.5,78.9,24.3,79.2,24.3,79.5z"/>
		<path class="st0" d="M33,76.1l-0.5,2.1h1.2l-0.1,0.5h-1.3l-1.3,5.4C31,84.5,31,84.8,31,85c0,0.3,0.1,0.4,0.3,0.4
			c0.5,0,1.1-0.8,1.7-2.3h0.4c-0.3,1-0.7,1.7-1.2,2.2c-0.5,0.5-1,0.8-1.6,0.8c-0.9,0-1.4-0.5-1.4-1.4c0-0.3,0.1-0.7,0.2-1.4l1.1-4.5
			h-1.3l0.1-0.5h1.3l0.4-1.9C31.8,76.4,32.4,76.3,33,76.1z"/>
		<path class="st0" d="M38.5,78L37,84c-0.1,0.5-0.2,0.8-0.2,0.9c0,0.2,0.1,0.4,0.4,0.4c0.3,0,0.6-0.2,1-0.6c0.4-0.4,0.8-1.1,1.1-1.9
			h0.4c-0.8,2.2-2,3.3-3.4,3.3c-0.8,0-1.3-0.4-1.3-1.3c0-0.3,0-0.6,0.1-0.9c0.1-0.3,0.1-0.5,0.2-0.7l1.1-4.4h-1.8l0.1-0.5h1.1
			C36.8,78.2,37.7,78.2,38.5,78z M37.3,74c0-0.3,0.1-0.5,0.3-0.7c0.2-0.2,0.5-0.3,0.7-0.3c0.3,0,0.5,0.1,0.8,0.3
			c0.2,0.2,0.3,0.5,0.3,0.8c0,0.3-0.1,0.5-0.3,0.8c-0.2,0.2-0.5,0.3-0.8,0.3c-0.3,0-0.5-0.1-0.7-0.3C37.4,74.6,37.3,74.3,37.3,74z"
			/>
		<path class="st0" d="M44.3,76.1l-0.5,2.1h1.2L45,78.7h-1.3l-1.3,5.4c-0.1,0.4-0.2,0.7-0.2,0.9c0,0.3,0.1,0.4,0.3,0.4
			c0.5,0,1.1-0.8,1.7-2.3h0.4c-0.3,1-0.7,1.7-1.2,2.2c-0.5,0.5-1,0.8-1.6,0.8c-0.9,0-1.4-0.5-1.4-1.4c0-0.3,0.1-0.7,0.2-1.4l1.1-4.5
			h-1.3l0.1-0.5H42l0.4-1.9C43.1,76.4,43.7,76.3,44.3,76.1z"/>
		<path class="st0" d="M54.4,78.2l-1.3,5.5c0,0-0.1,0.2-0.1,0.5c-0.1,0.3-0.1,0.5-0.1,0.7c0,0.1,0,0.2,0.1,0.3
			c0.1,0.1,0.1,0.1,0.2,0.1c0.2,0,0.5-0.2,0.8-0.6c0.3-0.4,0.6-0.9,0.9-1.6h0.4c-0.4,1-0.8,1.8-1.3,2.3c-0.5,0.5-1,0.7-1.6,0.7
			c-0.4,0-0.7-0.2-0.9-0.5c-0.2-0.3-0.3-0.7-0.3-1.1c0-0.1,0-0.3,0.1-0.6l0,0c-1,1.5-2,2.2-3.1,2.2c-0.5,0-0.9-0.2-1.2-0.5
			c-0.3-0.3-0.5-0.7-0.5-1.2c0-0.2,0-0.4,0.1-0.6c0.1-0.2,0.1-0.5,0.1-0.7l1-4.4h-1.5l0.1-0.4h1.6c0.5,0,0.9,0,1.2-0.1
			c0.3,0,0.5-0.1,0.6-0.1l-1.3,5.6c-0.1,0.5-0.2,0.8-0.2,1.1c0,0.4,0.2,0.6,0.5,0.6c0.4,0,0.9-0.3,1.5-0.9c0.7-0.6,1.2-1.6,1.5-3
			l0.8-3.3H54.4z"/>
		<path class="st0" d="M59.9,76.1l-0.5,2.1h1.2l-0.1,0.5h-1.3l-1.3,5.4c-0.1,0.4-0.2,0.7-0.2,0.9c0,0.3,0.1,0.4,0.3,0.4
			c0.5,0,1.1-0.8,1.7-2.3h0.4c-0.3,1-0.7,1.7-1.2,2.2c-0.5,0.5-1,0.8-1.6,0.8c-0.9,0-1.4-0.5-1.4-1.4c0-0.3,0.1-0.7,0.2-1.4l1.1-4.5
			h-1.3l0.1-0.5h1.3l0.4-1.9C58.7,76.4,59.4,76.3,59.9,76.1z"/>
		<path class="st0" d="M61.4,82.7c0-1.3,0.4-2.4,1.3-3.3c0.9-0.9,1.9-1.4,3-1.4c0.9,0,1.6,0.3,2.1,1c0.5,0.6,0.7,1.4,0.7,2.3
			c0,1.2-0.5,2.4-1.4,3.3c-0.9,1-1.9,1.5-3,1.5c-0.8,0-1.5-0.3-2-0.9C61.7,84.5,61.4,83.7,61.4,82.7z M66.8,79.6
			c0-0.4-0.1-0.6-0.3-0.9c-0.2-0.2-0.5-0.3-0.8-0.3c-0.5,0-0.9,0.2-1.1,0.6c-0.2,0.4-0.5,1.3-0.9,2.6c-0.3,1.3-0.5,2.2-0.5,2.8
			c0,0.4,0.1,0.7,0.3,0.9c0.2,0.2,0.5,0.3,0.7,0.3c0.8,0,1.4-0.9,1.9-2.6C66.5,81.2,66.8,80.1,66.8,79.6z"/>
		<path class="st0" d="M84.9,72.9L84,76.6h-0.5c0-1.2-0.3-2.1-0.8-2.7c-0.5-0.6-1.2-0.8-2.1-0.8c-0.8,0-1.5,0.2-2,0.7
			c-0.5,0.5-0.8,1-0.8,1.5c0,0.4,0.2,0.7,0.5,1.1c0.3,0.3,1.1,0.8,2.4,1.3c1.2,0.5,2.1,1.1,2.7,1.7c0.5,0.6,0.8,1.4,0.8,2.3
			c0,1.2-0.5,2.3-1.4,3.1c-0.9,0.8-2,1.3-3.2,1.3c-1.1,0-2.2-0.4-3.2-1.3c-0.5,0.3-0.9,0.7-1.3,1h-0.4l0.9-3.7h0.4
			c0.1,1.2,0.5,2.1,1.2,2.7c0.7,0.6,1.4,0.9,2.4,0.9c1,0,1.7-0.3,2.4-0.8c0.6-0.5,0.9-1.2,0.9-1.9c0-0.6-0.2-1.1-0.6-1.5
			c-0.4-0.4-1.3-0.9-2.5-1.5c-1.2-0.5-2-1.1-2.4-1.6c-0.4-0.5-0.5-1.1-0.5-1.8c0-1.2,0.4-2.1,1.1-2.9c0.8-0.7,1.7-1.1,2.8-1.1
			c1.2,0,2.2,0.4,2.8,1.3c0.4-0.3,0.7-0.6,0.9-1H84.9z"/>
		<path class="st0" d="M94,78.2l-1.3,5.5c0,0-0.1,0.2-0.1,0.5c-0.1,0.3-0.1,0.5-0.1,0.7c0,0.1,0,0.2,0.1,0.3
			c0.1,0.1,0.1,0.1,0.2,0.1c0.2,0,0.5-0.2,0.8-0.6c0.3-0.4,0.6-0.9,0.9-1.6H95c-0.4,1-0.8,1.8-1.3,2.3c-0.5,0.5-1,0.7-1.6,0.7
			c-0.4,0-0.7-0.2-0.9-0.5c-0.2-0.3-0.3-0.7-0.3-1.1c0-0.1,0-0.3,0.1-0.6l0,0c-1,1.5-2,2.2-3.1,2.2c-0.5,0-0.9-0.2-1.2-0.5
			c-0.3-0.3-0.5-0.7-0.5-1.2c0-0.2,0-0.4,0.1-0.6c0.1-0.2,0.1-0.5,0.1-0.7l1-4.4h-1.5l0.1-0.4h1.6c0.5,0,0.9,0,1.2-0.1
			c0.3,0,0.5-0.1,0.6-0.1L88,83.7c-0.1,0.5-0.2,0.8-0.2,1.1c0,0.4,0.2,0.6,0.5,0.6c0.4,0,0.9-0.3,1.5-0.9c0.7-0.6,1.2-1.6,1.5-3
			l0.8-3.3H94z"/>
		<path class="st0" d="M99.7,79.2c0.6-0.8,1.2-1.2,1.9-1.2c0.8,0,1.4,0.3,1.8,0.8c0.4,0.6,0.6,1.3,0.6,2.2c0,1.3-0.5,2.5-1.4,3.5
			c-1,1-1.9,1.5-2.8,1.5c-0.7,0-1.2-0.4-1.4-1.2h0l-1.2,5.5h1.7l-0.1,0.5h-5l0.1-0.5h1.5l2.7-11.5h-1.7l0.1-0.5h1.1
			c1.1,0,1.9-0.1,2.5-0.2L99.7,79.2L99.7,79.2z M99.8,85.5c0.4,0,0.8-0.2,1.1-0.6c0.3-0.4,0.6-1.3,1-2.7c0.4-1.4,0.5-2.3,0.5-2.8
			c0-0.7-0.3-1-0.8-1c-0.4,0-0.7,0.2-1,0.5c-0.3,0.3-0.5,0.6-0.7,0.8c-0.2,0.2-0.4,0.9-0.7,1.9c-0.3,1-0.4,1.7-0.4,2.1
			C98.6,84.9,99,85.5,99.8,85.5z"/>
		<path class="st0" d="M107.7,82.5c-0.3,1.2-0.4,1.9-0.4,2.1c0,0.3,0.1,0.5,0.3,0.7c0.2,0.2,0.5,0.3,0.8,0.3c1.2,0,2.2-0.8,3-2.3
			h0.4c-0.4,0.9-1,1.6-1.6,2.1c-0.6,0.5-1.2,0.7-1.9,0.7c-0.8,0-1.5-0.3-2-1c-0.5-0.7-0.8-1.4-0.8-2.3c0-1.1,0.5-2.2,1.4-3.2
			c0.9-1,1.9-1.5,2.9-1.5c0.7,0,1.2,0.2,1.5,0.6c0.4,0.4,0.5,0.9,0.5,1.3c0,0.5-0.2,1-0.7,1.6C110.8,82.1,109.6,82.4,107.7,82.5z
			 M107.8,82c0.9,0,1.5-0.1,1.8-0.4c0.3-0.2,0.5-0.6,0.7-1.1c0.2-0.5,0.3-0.9,0.3-1.2c0-0.6-0.3-0.9-0.8-0.9c-0.5,0-0.9,0.2-1.2,0.7
			C108.4,79.6,108.1,80.6,107.8,82z"/>
		<path class="st0" d="M116.4,78.1l-0.6,2.4l0,0c0.9-1.7,1.7-2.5,2.4-2.5c0.3,0,0.5,0.1,0.7,0.3c0.2,0.2,0.3,0.4,0.3,0.6
			c0,0.3-0.1,0.5-0.3,0.6c-0.2,0.2-0.4,0.3-0.7,0.3c-0.3,0-0.5-0.1-0.6-0.2c-0.2-0.2-0.3-0.2-0.3-0.2c-0.1,0-0.4,0.2-0.7,0.7
			c-0.3,0.4-0.5,0.9-0.7,1.3c-0.2,0.4-0.4,1.1-0.6,2l-0.6,2.6H113l1.6-7.2h-1.5l0.1-0.5h1.2C115.2,78.2,115.9,78.2,116.4,78.1z"/>
		<path class="st0" d="M123.7,78l-1.4,5.9c-0.1,0.5-0.2,0.8-0.2,0.9c0,0.2,0.1,0.4,0.4,0.4c0.3,0,0.6-0.2,1-0.6
			c0.4-0.4,0.8-1.1,1.1-1.9h0.4c-0.8,2.2-2,3.3-3.4,3.3c-0.8,0-1.3-0.4-1.3-1.3c0-0.3,0-0.6,0.1-0.9c0.1-0.3,0.1-0.5,0.2-0.7
			l1.1-4.4h-1.8l0.1-0.5h1.1C122,78.2,122.8,78.2,123.7,78z M122.5,74c0-0.3,0.1-0.5,0.3-0.7c0.2-0.2,0.5-0.3,0.7-0.3
			c0.3,0,0.5,0.1,0.8,0.3c0.2,0.2,0.3,0.5,0.3,0.8c0,0.3-0.1,0.5-0.3,0.8c-0.2,0.2-0.5,0.3-0.8,0.3c-0.3,0-0.5-0.1-0.7-0.3
			C122.6,74.6,122.5,74.3,122.5,74z"/>
		<path class="st0" d="M125.8,82.7c0-1.3,0.4-2.4,1.3-3.3c0.9-0.9,1.9-1.4,3-1.4c0.9,0,1.6,0.3,2.1,1c0.5,0.6,0.7,1.4,0.7,2.3
			c0,1.2-0.5,2.4-1.4,3.3c-0.9,1-1.9,1.5-3,1.5c-0.8,0-1.5-0.3-2-0.9C126,84.5,125.8,83.7,125.8,82.7z M131.1,79.6
			c0-0.4-0.1-0.6-0.3-0.9c-0.2-0.2-0.5-0.3-0.8-0.3c-0.5,0-0.9,0.2-1.1,0.6c-0.2,0.4-0.5,1.3-0.9,2.6c-0.3,1.3-0.5,2.2-0.5,2.8
			c0,0.4,0.1,0.7,0.3,0.9c0.2,0.2,0.5,0.3,0.7,0.3c0.8,0,1.4-0.9,1.9-2.6C130.9,81.2,131.1,80.1,131.1,79.6z"/>
		<path class="st0" d="M137.6,78.1l-0.6,2.4l0,0c0.9-1.7,1.7-2.5,2.4-2.5c0.3,0,0.5,0.1,0.7,0.3c0.2,0.2,0.3,0.4,0.3,0.6
			c0,0.3-0.1,0.5-0.3,0.6c-0.2,0.2-0.4,0.3-0.7,0.3c-0.3,0-0.5-0.1-0.6-0.2c-0.2-0.2-0.3-0.2-0.3-0.2c-0.1,0-0.4,0.2-0.7,0.7
			c-0.3,0.4-0.5,0.9-0.7,1.3c-0.2,0.4-0.4,1.1-0.6,2l-0.6,2.6h-1.8l1.6-7.2h-1.5l0.1-0.5h1.2C136.4,78.2,137.1,78.2,137.6,78.1z"/>
	</g>
	<path class="st0" d="M64.4,47.8c-0.2-0.2-0.3-0.6-0.1-1l4.5-4.9c0.2-0.3,0.6-0.3,0.9-0.1c2.6,2,6.2,4,10.4,4c4.2,0,6.5-1.9,6.5-4.6
		c0-2.3-1.4-3.7-6.2-4.3l-2.1-0.3c-8.1-1.1-12.6-4.8-12.6-11.6c0-7.1,5.5-11.8,14.1-11.8c5.3,0,10.2,1.5,13.5,4
		c0.4,0.2,0.4,0.4,0.1,0.9l-3.6,5.2c-0.2,0.3-0.5,0.3-0.8,0.2c-3-1.9-6-2.9-9.3-2.9c-3.5,0-5.3,1.8-5.3,4.2c0,2.2,1.6,3.6,6.2,4.3
		l2.1,0.3C91,30.3,95.4,34,95.4,40.9c0,7-5.3,12.1-15.6,12.1C73.5,53.1,67.5,50.7,64.4,47.8"/>
	<path class="st0" d="M99.7,13.8c0-0.3,0.2-0.6,0.6-0.6h14.8c7,0,11.8,3,13.8,9c0.7,2.2,1.1,4.5,1.1,11c0,6.5-0.3,8.7-1.1,11
		c-1.9,6-6.8,9-13.8,9h-14.8c-0.4,0-0.6-0.2-0.6-0.6V13.8z M108.7,45.4h4.5c4,0,6.4-1.2,7.4-4.4c0.4-1.2,0.6-2.7,0.6-7.8
		c0-5.2-0.2-6.7-0.6-7.9c-1-3.2-3.4-4.4-7.4-4.4h-4.5c-0.2,0-0.3,0.1-0.3,0.4v23.8C108.3,45.3,108.4,45.4,108.7,45.4"/>
	<polygon class="st0" points="19.4,51.6 19.4,14.6 13.2,14.6 13.2,13.1 32.3,13.1 32.3,14.6 26.1,14.6 26.1,51.6 32.3,51.6 
		32.3,53.1 13.2,53.1 13.2,51.6 	"/>
	<path class="st0" d="M59,13.6l0.2,10h-1.3c-1.9-6-5.2-9-9.9-9c-2.6,0-4.7,0.7-6.1,2.2c-1.5,1.5-2.2,3-2.2,4.6
		c0,1.5,0.6,2.7,1.8,3.8c1.2,1,3.4,1.8,6.6,2.4c3.2,0.6,5.7,1.3,7.3,2.1c1.7,0.8,3.1,2.2,4.3,4.1c1.2,1.9,1.7,4.1,1.7,6.5
		c0,3.8-1.2,6.9-3.6,9.4c-2.4,2.5-5.4,3.8-9,3.8c-2.9,0-5.8-1.1-8.7-3.3l-2.6,2.4h-1V41.7h1.2c1.1,3.4,2.7,5.9,4.6,7.6
		c2,1.7,4.2,2.6,6.5,2.6c2.3,0,4.5-0.8,6.5-2.4c2-1.6,2.9-3.6,2.9-6c0-2-0.7-3.7-2-5.1c-1.4-1.4-3.6-2.3-6.6-2.9
		c-3-0.5-5.4-1.1-7-1.8c-1.6-0.7-3-1.9-4.2-3.6c-1.2-1.7-1.7-3.6-1.7-5.8c0-2.9,1-5.5,3-7.8c2-2.3,4.8-3.4,8.2-3.4
		c2.9,0,5.6,0.9,8.1,2.8c0.7-0.7,1.3-1.5,1.8-2.4H59z"/>
	<g>
		<path class="st0" d="M143.1,66.4h-79v-1.5h77.5V14c0-6.9-5.6-12.5-12.5-12.5H1.5V53H0V0h129.1c7.7,0,14,6.3,14,14V66.4z"/>
	</g>
</g>
</svg>
